<mxfile host="app.diagrams.net" agent="Mozilla/5.0 (Windows NT 10.0; Win64; x64) AppleWebKit/537.36 (KHTML, like Gecko) Chrome/128.0.0.0 Safari/537.36 OPR/114.0.0.0" version="26.0.4">
  <diagram name="PÃ¡gina-1" id="EQY7rx08GIGifhaFdDs0">
    <mxGraphModel dx="545" dy="1867" grid="1" gridSize="10" guides="1" tooltips="1" connect="1" arrows="1" fold="1" page="1" pageScale="1" pageWidth="827" pageHeight="1169" math="0" shadow="0">
      <root>
        <mxCell id="0" />
        <mxCell id="1" parent="0" />
        <mxCell id="6GOztxUwA011YL0eF0oX-10" style="edgeStyle=orthogonalEdgeStyle;rounded=0;orthogonalLoop=1;jettySize=auto;html=1;exitX=0.5;exitY=1;exitDx=0;exitDy=0;entryX=0.5;entryY=0;entryDx=0;entryDy=0;" edge="1" parent="1" source="6GOztxUwA011YL0eF0oX-1" target="6GOztxUwA011YL0eF0oX-3">
          <mxGeometry relative="1" as="geometry" />
        </mxCell>
        <mxCell id="6GOztxUwA011YL0eF0oX-1" value="Inicio" style="ellipse;whiteSpace=wrap;html=1;" vertex="1" parent="1">
          <mxGeometry x="210" y="-20" width="120" height="70" as="geometry" />
        </mxCell>
        <mxCell id="6GOztxUwA011YL0eF0oX-2" value="Fim" style="ellipse;whiteSpace=wrap;html=1;" vertex="1" parent="1">
          <mxGeometry x="205" y="780" width="120" height="70" as="geometry" />
        </mxCell>
        <mxCell id="6GOztxUwA011YL0eF0oX-11" style="edgeStyle=orthogonalEdgeStyle;rounded=0;orthogonalLoop=1;jettySize=auto;html=1;exitX=0.5;exitY=1;exitDx=0;exitDy=0;entryX=0.5;entryY=0;entryDx=0;entryDy=0;" edge="1" parent="1" source="6GOztxUwA011YL0eF0oX-3" target="6GOztxUwA011YL0eF0oX-4">
          <mxGeometry relative="1" as="geometry" />
        </mxCell>
        <mxCell id="6GOztxUwA011YL0eF0oX-3" value="capital" style="shape=parallelogram;html=1;strokeWidth=2;perimeter=parallelogramPerimeter;whiteSpace=wrap;rounded=1;arcSize=12;size=0.23;" vertex="1" parent="1">
          <mxGeometry x="195" y="80" width="150" height="50" as="geometry" />
        </mxCell>
        <mxCell id="6GOztxUwA011YL0eF0oX-12" style="edgeStyle=orthogonalEdgeStyle;rounded=0;orthogonalLoop=1;jettySize=auto;html=1;exitX=0.5;exitY=1;exitDx=0;exitDy=0;entryX=0.5;entryY=0;entryDx=0;entryDy=0;" edge="1" parent="1" source="6GOztxUwA011YL0eF0oX-4" target="6GOztxUwA011YL0eF0oX-5">
          <mxGeometry relative="1" as="geometry" />
        </mxCell>
        <mxCell id="6GOztxUwA011YL0eF0oX-4" value="juros" style="shape=parallelogram;html=1;strokeWidth=2;perimeter=parallelogramPerimeter;whiteSpace=wrap;rounded=1;arcSize=12;size=0.23;" vertex="1" parent="1">
          <mxGeometry x="195" y="180" width="150" height="50" as="geometry" />
        </mxCell>
        <mxCell id="6GOztxUwA011YL0eF0oX-13" style="edgeStyle=orthogonalEdgeStyle;rounded=0;orthogonalLoop=1;jettySize=auto;html=1;exitX=0.5;exitY=1;exitDx=0;exitDy=0;entryX=0.5;entryY=0;entryDx=0;entryDy=0;" edge="1" parent="1" source="6GOztxUwA011YL0eF0oX-5" target="6GOztxUwA011YL0eF0oX-6">
          <mxGeometry relative="1" as="geometry" />
        </mxCell>
        <mxCell id="6GOztxUwA011YL0eF0oX-5" value="meses" style="shape=parallelogram;html=1;strokeWidth=2;perimeter=parallelogramPerimeter;whiteSpace=wrap;rounded=1;arcSize=12;size=0.23;" vertex="1" parent="1">
          <mxGeometry x="195" y="280" width="150" height="50" as="geometry" />
        </mxCell>
        <mxCell id="6GOztxUwA011YL0eF0oX-14" style="edgeStyle=orthogonalEdgeStyle;rounded=0;orthogonalLoop=1;jettySize=auto;html=1;exitX=0.5;exitY=1;exitDx=0;exitDy=0;entryX=0.5;entryY=0;entryDx=0;entryDy=0;" edge="1" parent="1" source="6GOztxUwA011YL0eF0oX-6" target="6GOztxUwA011YL0eF0oX-7">
          <mxGeometry relative="1" as="geometry" />
        </mxCell>
        <mxCell id="6GOztxUwA011YL0eF0oX-6" value="montante = capital" style="rounded=1;whiteSpace=wrap;html=1;absoluteArcSize=1;arcSize=14;strokeWidth=2;" vertex="1" parent="1">
          <mxGeometry x="205" y="380" width="130" height="50" as="geometry" />
        </mxCell>
        <mxCell id="6GOztxUwA011YL0eF0oX-15" style="edgeStyle=orthogonalEdgeStyle;rounded=0;orthogonalLoop=1;jettySize=auto;html=1;exitX=0.5;exitY=1;exitDx=0;exitDy=0;entryX=0.5;entryY=0;entryDx=0;entryDy=0;" edge="1" parent="1" source="6GOztxUwA011YL0eF0oX-7" target="6GOztxUwA011YL0eF0oX-8">
          <mxGeometry relative="1" as="geometry" />
        </mxCell>
        <mxCell id="6GOztxUwA011YL0eF0oX-17" value="V" style="edgeLabel;html=1;align=center;verticalAlign=middle;resizable=0;points=[];" vertex="1" connectable="0" parent="6GOztxUwA011YL0eF0oX-15">
          <mxGeometry x="-0.04" y="2" relative="1" as="geometry">
            <mxPoint x="8" as="offset" />
          </mxGeometry>
        </mxCell>
        <mxCell id="6GOztxUwA011YL0eF0oX-7" value="i = 1; &amp;lt;meses; +1" style="rounded=1;whiteSpace=wrap;html=1;absoluteArcSize=1;arcSize=14;strokeWidth=2;" vertex="1" parent="1">
          <mxGeometry x="205" y="480" width="130" height="50" as="geometry" />
        </mxCell>
        <mxCell id="6GOztxUwA011YL0eF0oX-16" style="edgeStyle=orthogonalEdgeStyle;rounded=0;orthogonalLoop=1;jettySize=auto;html=1;exitX=0;exitY=0.5;exitDx=0;exitDy=0;entryX=0;entryY=0.5;entryDx=0;entryDy=0;" edge="1" parent="1" source="6GOztxUwA011YL0eF0oX-8" target="6GOztxUwA011YL0eF0oX-7">
          <mxGeometry relative="1" as="geometry" />
        </mxCell>
        <mxCell id="6GOztxUwA011YL0eF0oX-8" value="montante = montante + (montante * (juros/100))" style="rounded=1;whiteSpace=wrap;html=1;absoluteArcSize=1;arcSize=14;strokeWidth=2;" vertex="1" parent="1">
          <mxGeometry x="205" y="580" width="130" height="50" as="geometry" />
        </mxCell>
        <mxCell id="6GOztxUwA011YL0eF0oX-21" style="edgeStyle=orthogonalEdgeStyle;rounded=0;orthogonalLoop=1;jettySize=auto;html=1;exitX=0.5;exitY=1;exitDx=0;exitDy=0;exitPerimeter=0;entryX=0.5;entryY=0;entryDx=0;entryDy=0;" edge="1" parent="1" source="6GOztxUwA011YL0eF0oX-18" target="6GOztxUwA011YL0eF0oX-2">
          <mxGeometry relative="1" as="geometry" />
        </mxCell>
        <mxCell id="6GOztxUwA011YL0eF0oX-18" value="capital&lt;div&gt;juros&lt;/div&gt;&lt;div&gt;meses&lt;/div&gt;&lt;div&gt;montante&lt;/div&gt;" style="strokeWidth=2;html=1;shape=mxgraph.flowchart.display;whiteSpace=wrap;" vertex="1" parent="1">
          <mxGeometry x="220" y="680" width="100" height="70" as="geometry" />
        </mxCell>
        <mxCell id="6GOztxUwA011YL0eF0oX-19" style="edgeStyle=orthogonalEdgeStyle;rounded=0;orthogonalLoop=1;jettySize=auto;html=1;exitX=1;exitY=0.5;exitDx=0;exitDy=0;entryX=1;entryY=0.5;entryDx=0;entryDy=0;entryPerimeter=0;" edge="1" parent="1" source="6GOztxUwA011YL0eF0oX-7" target="6GOztxUwA011YL0eF0oX-18">
          <mxGeometry relative="1" as="geometry" />
        </mxCell>
        <mxCell id="6GOztxUwA011YL0eF0oX-20" value="F" style="edgeLabel;html=1;align=center;verticalAlign=middle;resizable=0;points=[];" vertex="1" connectable="0" parent="6GOztxUwA011YL0eF0oX-19">
          <mxGeometry x="-0.2302" y="4" relative="1" as="geometry">
            <mxPoint x="11" y="33" as="offset" />
          </mxGeometry>
        </mxCell>
        <mxCell id="6GOztxUwA011YL0eF0oX-22" style="edgeStyle=orthogonalEdgeStyle;rounded=0;orthogonalLoop=1;jettySize=auto;html=1;exitX=0.5;exitY=1;exitDx=0;exitDy=0;entryX=0.5;entryY=0;entryDx=0;entryDy=0;entryPerimeter=0;" edge="1" parent="1" source="6GOztxUwA011YL0eF0oX-8" target="6GOztxUwA011YL0eF0oX-18">
          <mxGeometry relative="1" as="geometry" />
        </mxCell>
      </root>
    </mxGraphModel>
  </diagram>
</mxfile>
